PathFileType	4	(X/Y/Z)	/Users/visionmauri/Downloads/Videos/OAW04-top_Sports2D/OAW04-top_Sports2D_px_person00.trc
DataRate	CameraRate	NumFrames	NumMarkers	Units	OrigDataRate	OrigDataStartFrame	OrigNumFrames
30.0	30.0	5	22	m	30.0	1479	2367
Frame#	Time	Hip			RHip			RKnee			RAnkle			RBigToe			RSmallToe			RHeel			LHip			LKnee			LAnkle			LBigToe			LSmallToe			LHeel			Neck			Head			Nose			RShoulder			RElbow			RWrist			LShoulder			LElbow			LWrist			
		X1	Y1	Z1	X2	Y2	Z2	X3	Y3	Z3	X4	Y4	Z4	X5	Y5	Z5	X6	Y6	Z6	X7	Y7	Z7	X8	Y8	Z8	X9	Y9	Z9	X10	Y10	Z10	X11	Y11	Z11	X12	Y12	Z12	X13	Y13	Z13	X14	Y14	Z14	X15	Y15	Z15	X16	Y16	Z16	X17	Y17	Z17	X18	Y18	Z18	X19	Y19	Z19	X20	Y20	Z20	X21	Y21	Z21	X22	Y22	Z22
1479	49.32083685545225	624.2358084528283	792.7976515692905	0.0	637.055890085554	794.1364659627113	0.0	631.5727018998716	838.2953784976476	0.0	628.9036753676672	883.2265440276879	0.0	623.6743494433135	895.1736011612229	0.0	634.356928453934	896.5577411904617	0.0	628.3047158460139	894.1617804550566	0.0	612.1068093168192	793.6210630358157	0.0	611.5668323642973	835.7085986316757	0.0	611.7557434482818	873.3233525674012	0.0	611.0230955587042	895.4837151147327	0.0	604.2808060312315	893.9467236073293	0.0	613.9532794923912	879.8189996559748	0.0	628.716448292336	721.5011933614927	0.0	631.2220082571288	690.3502370231035	0.0	630.9406514560035	707.8939615181216	0.0	650.1576976531551	731.4254415505119	0.0	658.8638450480922	768.9584368301909	0.0	660.6631965205501	801.7769036671978	0.0	604.8950170192215	727.9085696087197	0.0	594.047791177136	763.8775337167168	0.0	592.5703669011278	792.7847997031522	0.0
1480	49.35418427726121	624.5065324391621	792.5904111522927	0.0	637.4564330550617	793.3447804389865	0.0	631.6895035148012	838.0032501324312	0.0	628.9023616185057	882.5657694493956	0.0	623.4996566514006	894.5745652795976	0.0	633.7243820113954	896.2567276329584	0.0	627.8656373637314	893.6889553581384	0.0	612.6371771982388	792.7260645801997	0.0	611.5856362533544	834.7276294214759	0.0	611.1532284044981	873.1208052681283	0.0	609.5412276431847	892.0463738726335	0.0	603.5724691204895	891.0773496410266	0.0	613.321519800687	879.5760998395999	0.0	628.8014175098008	720.4781364537613	0.0	630.4754945668632	688.5499716398901	0.0	629.905850447055	705.7683672669624	0.0	650.4057474017542	730.3685204401448	0.0	659.3878772288119	767.7110692721931	0.0	661.2233649463417	800.2221545097493	0.0	605.0348584364292	727.4722976820133	0.0	594.3911180610343	763.0055262430376	0.0	591.2641957691142	794.194583960743	0.0
1481	49.387531699070166	624.8171122739271	792.0957225726877	0.0	637.6481975791073	791.9449044761736	0.0	631.7140758851016	837.4262128656985	0.0	628.865244606355	881.7451242903245	0.0	623.6012054839872	894.1189328802483	0.0	633.024529515894	896.0123668950262	0.0	627.2374703998813	892.8492083552495	0.0	613.26404666223	790.9069645724113	0.0	611.2828903425552	833.9538651796455	0.0	610.3532962897285	873.5915168827667	0.0	607.4021144281604	888.6046880690382	0.0	602.7421774257568	888.3211647340751	0.0	612.4581420687601	881.4214721437896	0.0	628.9602792566125	719.6454845066102	0.0	629.7936305459566	687.0129443914905	0.0	628.7760530783719	705.0606497118448	0.0	650.572521940458	729.4558641335028	0.0	659.6431769198186	766.6235464206715	0.0	661.3605832523663	798.481005549658	0.0	605.2402398202929	727.0751038537298	0.0	594.4300140765049	762.4735573966996	0.0	589.9931327953838	795.1605183359767	0.0
1482	49.42087912087913	624.9714390762581	790.8487571649251	0.0	637.6620099783797	790.102957429311	0.0	631.7611678000442	836.2969980975905	0.0	628.8215701869497	881.1650845058036	0.0	624.1594744322545	893.534388655099	0.0	633.0172572355116	895.727582600114	0.0	627.0837710160324	892.0013741887133	0.0	613.638321028786	788.4563641091844	0.0	610.885847899503	832.7594161267263	0.0	609.6057792310202	873.7848332628519	0.0	605.5071534657008	884.5918250283903	0.0	601.8603519603639	885.2434210796058	0.0	611.7389432001754	883.0536679504661	0.0	629.0017721711785	719.3620159055977	0.0	629.5099354724478	686.617915111826	0.0	627.9795784108281	706.570709949074	0.0	650.6611148923207	728.9905648240542	0.0	659.6211520751835	765.834931257994	0.0	660.9882870278276	796.5677383796443	0.0	605.37437127654	726.7333840237749	0.0	593.8150965109452	762.26557898444	0.0	588.8887394377158	795.5055668333887	0.0
1483	49.45422654268809	624.9104885874756	789.3263895091785	0.0	637.6908991130813	788.9258239619497	0.0	631.9031773673994	835.1392357812528	0.0	628.8765982505403	881.2271333014517	0.0	624.8023218695987	892.9660399835924	0.0	633.7510165659894	895.690531953852	0.0	627.8245742772849	891.9969664207352	0.0	613.6066449875459	786.9365501573257	0.0	610.6273003550901	831.1905385841395	0.0	609.3978496932064	872.9655575178334	0.0	604.7312904091791	879.4993854062369	0.0	601.4172976644332	881.5301695509177	0.0	611.6802679459515	882.5473761243272	0.0	628.5702774597173	719.9136081082694	0.0	629.2327128747586	687.7802734017612	0.0	627.3162695493794	710.061750804176	0.0	650.6265616188579	729.0301942740534	0.0	659.3104722929346	764.9733443701052	0.0	660.2655533159964	794.322531350395	0.0	605.2433496456351	726.8419424560325	0.0	592.6674863388226	762.1447191115444	0.0	588.0521803988987	795.2163494968322	0.0
